<?xml version="1.0" encoding="UTF-8" standalone="no"?>
<!-- Uploaded to: SVG Repo, www.svgrepo.com, Generator: SVG Repo Mixer Tools -->

<svg
   fill="#000000"
   width="800px"
   height="800px"
   viewBox="0 0 1024 1024"
   class="icon"
   version="1.1"
   id="svg1"
   xmlns="http://www.w3.org/2000/svg"
   xmlns:svg="http://www.w3.org/2000/svg">
  <defs
     id="defs1" />
  <rect
     style="fill:#ffffff;stroke-width:0.48378;stroke-linecap:round;fill-opacity:1"
     id="rect1"
     width="1024"
     height="1024"
     x="0"
     y="0" />
  <path
     d="M 512.05718,2.6629549 C 229.14444,2.5485539 0,231.57859 0,514.26253 c 0,223.53882 143.34396,413.55824 342.97306,483.34263 26.88415,6.74954 22.76573,-12.35527 22.76573,-25.39694 V 883.54774 C 210.49715,901.73743 204.20511,799.00567 193.79465,781.84558 c -21.04971,-35.92179 -70.81399,-45.07384 -55.94189,-62.23394 35.34978,-18.18969 71.38598,4.57604 113.14221,66.23796 30.20176,44.73064 89.11808,37.1802 118.97665,29.74418 6.52083,-26.88416 20.4777,-50.90828 39.697,-69.5556 C 248.82135,717.20923 181.78259,619.05349 181.78259,502.36487 c 0,-56.62831 18.64731,-108.6806 55.2555,-150.66561 -23.33773,-69.21239 2.17362,-128.47191 5.60563,-137.28077 66.46675,-5.94882 135.56474,47.59067 140.94157,51.82349 37.7522,-10.18164 80.88122,-15.55848 129.15829,-15.55848 48.50587,0 91.7493,5.60564 129.84471,15.90169 12.92727,-9.83846 76.99162,-55.82751 138.76796,-50.22189 3.31761,8.80886 28.25695,66.69558 6.29203,134.99274 37.06581,42.09943 55.94191,94.60932 55.94191,151.35203 0,116.91743 -67.49637,215.18757 -228.80125,243.55892 a 145.8608,145.8608 0 0 1 43.58664,104.10457 V 979.0723 c 0.9152,10.29597 0,20.47766 17.16008,20.47766 C 878.13916,931.2528 1024,739.86056 1024,514.37692 1024,231.57859 794.74112,2.6629549 512.05718,2.6629549 Z"
     id="path1"
     style="stroke-width:1.144" />
</svg>
