<?xml version="1.0" encoding="UTF-8" standalone="no"?>
<svg
   height="72"
   viewBox="0 0 72 72"
   width="72"
   version="1.1"
   id="svg2"
   xmlns="http://www.w3.org/2000/svg"
   xmlns:svg="http://www.w3.org/2000/svg">
  <defs
     id="defs2" />
  <rect
     style="fill:#007ebb;fill-opacity:1;stroke-width:0.377953;stroke-linecap:round"
     id="rect2"
     width="72"
     height="72"
     x="0"
     y="0" />
  <path
     d="M 59,57 H 49.959375 V 41.60179 c 0,-4.221767 -1.604167,-6.581032 -4.945703,-6.581032 -3.635156,0 -5.534375,2.455182 -5.534375,6.581032 V 57 h -8.71263 V 27.666667 h 8.71263 v 3.951195 c 0,0 2.619661,-4.847372 8.844401,-4.847372 C 54.545573,26.77049 59,30.569937 59,38.427949 Z M 20.37253,23.825704 C 17.40482,23.825704 15,21.402017 15,18.412852 15,15.423686 17.40482,13 20.37253,13 c 2.967704,0 5.37109,2.423686 5.37109,5.412852 0,2.989165 -2.403386,5.412852 -5.37109,5.412852 z M 15.8737,57 h 9.085024 V 27.666667 H 15.8737 Z"
     fill="#ffffff"
     id="path2"
     style="fill-rule:evenodd" />
</svg>
